<svg xmlns="http://www.w3.org/2000/svg" enable-background="new 0 0 47.5 47.5" viewBox="0 0 47.5 47.5">
  <defs>
    <clipPath id="a" clipPathUnits="userSpaceOnUse">
      <path d="M 0,38 38,38 38,0 0,0 0,38 Z" />
    </clipPath>
  </defs>
  <g clip-path="url(#a)" transform="matrix(1.25 0 0 -1.25 0 47.5)">
    <path fill="RGB(0,100,255)" d="m 0,0 c -8.836,0 -16,7.163 -16,16 0,8.836 7.164,16 16,16 C 8.837,32 16,24.836 16,16 16,7.163 8.837,0 0,0 M 0,34 C -9.941,34 -18,25.94 -18,16 -18,6.059 -9.941,-2 0,-2 9.941,-2 18,6.059 18,16 18,25.94 9.941,34 0,34" transform="translate(19 3)" />
    <path fill="RGB(255,100,0)" d="m 0,0 c 2.263,0 6.666,-0.744 6.666,-3.473 0,-1.116 -0.776,-2.077 -1.922,-2.077 -1.272,0 -2.139,1.085 -4.744,1.085 -3.845,0 -5.829,-3.256 -5.829,-7.038 0,-3.689 2.015,-6.852 5.829,-6.852 2.605,0 3.658,1.301 4.929,1.301 1.397,0 2.047,-1.394 2.047,-2.107 0,-2.977 -4.682,-3.659 -6.976,-3.659 -6.294,0 -10.666,4.992 -10.666,11.41 C -10.666,-4.961 -6.325,0 0,0" transform="translate(19.723 30.448)" />
  </g>
</svg>